# MagicaVoxel @ Ephtracy

# group
o 

# material
mtllib Tank.mtl
usemtl palette

# normals
vn -1 0 0
vn 1 0 0
vn 0 0 1
vn 0 0 -1
vn 0 -1 0
vn 0 1 0

# texcoords
vt 0.0175781 0.5
vt 0.0214844 0.5
vt 0.982422 0.5

# verts
v -0.6 0 0.7
v -0.6 0 -0.6
v -0.6 0.1 0.6
v -0.6 0.1 -0.5
v -0.6 0.4 0.6
v -0.6 0.4 -0.5
v -0.6 0.5 0.7
v -0.6 0.5 -0.6
v -0.5 0.1 0.6
v -0.5 0.1 -0.5
v -0.5 0.4 0.6
v -0.5 0.4 -0.5
v -0.4 0.5 0.7
v -0.4 0.5 0.6
v -0.4 0.5 -0.5
v -0.4 0.8 0.7
v -0.4 0.8 -0.5
v -0.2 0.8 0.4
v -0.2 0.8 -0.2
v -0.2 1.1 0.4
v -0.2 1.1 -0.2
v 0.4 0.5 0.7
v 0.4 0.5 0.6
v 0.4 0.5 -0.4
v 0.4 0.5 -0.5
v 0.4 0.8 0.7
v 0.4 0.8 0.6
v 0.4 0.8 -0.4
v 0.4 0.8 -0.5
v 0.6 0 0.7
v 0.6 0 0.6
v 0.6 0 -0.5
v 0.6 0 -0.6
v 0.6 0.5 0.7
v 0.6 0.5 0.6
v 0.6 0.5 -0.5
v 0.6 0.5 -0.6
v -0.5 0 0.7
v -0.5 0 0.6
v -0.5 0 -0.5
v -0.5 0 -0.6
v -0.5 0.5 0.7
v -0.5 0.5 0.6
v -0.5 0.5 -0.5
v -0.5 0.5 -0.6
v -0.3 0.5 0.7
v -0.3 0.5 0.6
v -0.3 0.5 -0.4
v -0.3 0.5 -0.5
v -0.3 0.8 0.7
v -0.3 0.8 0.6
v -0.3 0.8 -0.4
v -0.3 0.8 -0.5
v 0.3 0.8 0.4
v 0.3 0.8 -0.2
v 0.3 1.1 0.4
v 0.3 1.1 -0.2
v 0.5 0.5 0.7
v 0.5 0.5 0.6
v 0.5 0.5 -0.5
v 0.5 0.8 0.7
v 0.5 0.8 -0.5
v 0.6 0.1 0.6
v 0.6 0.1 -0.5
v 0.6 0.4 0.6
v 0.6 0.4 -0.5
v 0.7 0 0.7
v 0.7 0 -0.6
v 0.7 0.1 0.6
v 0.7 0.1 -0.5
v 0.7 0.4 0.6
v 0.7 0.4 -0.5
v 0.7 0.5 0.7
v 0.7 0.5 -0.6
v -0.6 0 0.7
v -0.6 0.5 0.7
v -0.5 0 0.7
v -0.5 0.5 0.7
v -0.4 0.5 0.7
v -0.4 0.8 0.7
v -0.3 0.5 0.7
v -0.3 0.8 0.7
v 0.4 0.5 0.7
v 0.4 0.8 0.7
v 0.5 0.5 0.7
v 0.5 0.8 0.7
v 0.6 0 0.7
v 0.6 0.5 0.7
v 0.7 0 0.7
v 0.7 0.5 0.7
v -0.5 0 0.6
v -0.5 0.5 0.6
v -0.4 0.5 0.6
v -0.3 0.5 0.6
v -0.3 0.8 0.6
v 0.4 0.5 0.6
v 0.4 0.8 0.6
v 0.5 0.5 0.6
v 0.6 0 0.6
v 0.6 0.5 0.6
v -0.2 0.8 0.4
v -0.2 1.1 0.4
v 0.3 0.8 0.4
v 0.3 1.1 0.4
v -0.6 0.1 -0.5
v -0.6 0.4 -0.5
v -0.5 0.1 -0.5
v -0.5 0.4 -0.5
v 0.6 0.1 -0.5
v 0.6 0.4 -0.5
v 0.7 0.1 -0.5
v 0.7 0.4 -0.5
v -0.6 0.1 0.6
v -0.6 0.4 0.6
v -0.5 0.1 0.6
v -0.5 0.4 0.6
v 0.6 0.1 0.6
v 0.6 0.4 0.6
v 0.7 0.1 0.6
v 0.7 0.4 0.6
v -0.2 0.8 -0.2
v -0.2 1.1 -0.2
v 0.3 0.8 -0.2
v 0.3 1.1 -0.2
v -0.3 0.5 -0.4
v -0.3 0.8 -0.4
v 0.4 0.5 -0.4
v 0.4 0.8 -0.4
v -0.5 0 -0.5
v -0.5 0.5 -0.5
v -0.4 0.5 -0.5
v -0.4 0.8 -0.5
v -0.3 0.5 -0.5
v -0.3 0.8 -0.5
v 0.4 0.5 -0.5
v 0.4 0.8 -0.5
v 0.5 0.5 -0.5
v 0.5 0.8 -0.5
v 0.6 0 -0.5
v 0.6 0.5 -0.5
v -0.6 0 -0.6
v -0.6 0.5 -0.6
v -0.5 0 -0.6
v -0.5 0.5 -0.6
v 0.6 0 -0.6
v 0.6 0.5 -0.6
v 0.7 0 -0.6
v 0.7 0.5 -0.6
v -0.6 0 0.7
v -0.5 0 0.7
v 0.6 0 0.7
v 0.7 0 0.7
v -0.5 0 0.6
v 0.6 0 0.6
v -0.5 0 -0.5
v 0.6 0 -0.5
v -0.6 0 -0.6
v -0.5 0 -0.6
v 0.6 0 -0.6
v 0.7 0 -0.6
v -0.6 0.4 0.6
v -0.5 0.4 0.6
v 0.6 0.4 0.6
v 0.7 0.4 0.6
v -0.6 0.4 -0.5
v -0.5 0.4 -0.5
v 0.6 0.4 -0.5
v 0.7 0.4 -0.5
v -0.4 0.5 0.7
v -0.3 0.5 0.7
v 0.4 0.5 0.7
v 0.5 0.5 0.7
v -0.4 0.5 0.6
v -0.3 0.5 0.6
v 0.4 0.5 0.6
v 0.5 0.5 0.6
v -0.6 0.1 0.6
v -0.5 0.1 0.6
v 0.6 0.1 0.6
v 0.7 0.1 0.6
v -0.6 0.1 -0.5
v -0.5 0.1 -0.5
v 0.6 0.1 -0.5
v 0.7 0.1 -0.5
v -0.6 0.5 0.7
v -0.5 0.5 0.7
v 0.6 0.5 0.7
v 0.7 0.5 0.7
v -0.5 0.5 0.6
v -0.4 0.5 0.6
v 0.5 0.5 0.6
v 0.6 0.5 0.6
v -0.3 0.5 -0.4
v 0.4 0.5 -0.4
v -0.5 0.5 -0.5
v -0.4 0.5 -0.5
v -0.3 0.5 -0.5
v 0.4 0.5 -0.5
v 0.5 0.5 -0.5
v 0.6 0.5 -0.5
v -0.6 0.5 -0.6
v -0.5 0.5 -0.6
v 0.6 0.5 -0.6
v 0.7 0.5 -0.6
v -0.4 0.8 0.7
v -0.3 0.8 0.7
v 0.4 0.8 0.7
v 0.5 0.8 0.7
v -0.3 0.8 0.6
v 0.4 0.8 0.6
v -0.2 0.8 0.4
v 0.3 0.8 0.4
v -0.2 0.8 -0.2
v 0.3 0.8 -0.2
v -0.3 0.8 -0.4
v 0.4 0.8 -0.4
v -0.4 0.8 -0.5
v -0.3 0.8 -0.5
v 0.4 0.8 -0.5
v 0.5 0.8 -0.5
v -0.2 1.1 0.4
v 0.3 1.1 0.4
v -0.2 1.1 -0.2
v 0.3 1.1 -0.2

# faces
f 3/3/1 2/3/1 1/3/1
f 4/3/1 2/3/1 3/3/1
f 5/3/1 3/3/1 1/3/1
f 6/3/1 2/3/1 4/3/1
f 7/3/1 5/3/1 1/3/1
f 7/3/1 6/3/1 5/3/1
f 8/3/1 2/3/1 6/3/1
f 8/3/1 6/3/1 7/3/1
f 11/1/1 10/1/1 9/1/1
f 12/1/1 10/1/1 11/1/1
f 16/2/1 14/2/1 13/2/1
f 16/2/1 15/2/1 14/2/1
f 17/2/1 15/2/1 16/2/1
f 20/2/1 19/2/1 18/2/1
f 21/2/1 19/2/1 20/2/1
f 26/2/1 23/2/1 22/2/1
f 27/2/1 23/2/1 26/2/1
f 28/2/1 25/2/1 24/2/1
f 29/2/1 25/2/1 28/2/1
f 34/3/1 31/3/1 30/3/1
f 35/3/1 31/3/1 34/3/1
f 36/3/1 33/3/1 32/3/1
f 37/3/1 33/3/1 36/3/1
f 38/3/2 39/3/2 42/3/2
f 42/3/2 39/3/2 43/3/2
f 40/3/2 41/3/2 44/3/2
f 44/3/2 41/3/2 45/3/2
f 46/2/2 47/2/2 50/2/2
f 50/2/2 47/2/2 51/2/2
f 48/2/2 49/2/2 52/2/2
f 52/2/2 49/2/2 53/2/2
f 54/2/2 55/2/2 56/2/2
f 56/2/2 55/2/2 57/2/2
f 58/2/2 59/2/2 61/2/2
f 59/2/2 60/2/2 61/2/2
f 61/2/2 60/2/2 62/2/2
f 63/1/2 64/1/2 65/1/2
f 65/1/2 64/1/2 66/1/2
f 67/3/2 68/3/2 69/3/2
f 69/3/2 68/3/2 70/3/2
f 67/3/2 69/3/2 71/3/2
f 70/3/2 68/3/2 72/3/2
f 67/3/2 71/3/2 73/3/2
f 71/3/2 72/3/2 73/3/2
f 72/3/2 68/3/2 74/3/2
f 73/3/2 72/3/2 74/3/2
f 77/3/3 76/3/3 75/3/3
f 78/3/3 76/3/3 77/3/3
f 81/2/3 80/2/3 79/2/3
f 82/2/3 80/2/3 81/2/3
f 85/2/3 84/2/3 83/2/3
f 86/2/3 84/2/3 85/2/3
f 89/3/3 88/3/3 87/3/3
f 90/3/3 88/3/3 89/3/3
f 93/1/3 92/1/3 91/1/3
f 94/1/3 93/1/3 91/1/3
f 96/1/3 94/1/3 91/1/3
f 96/2/3 95/2/3 94/2/3
f 97/2/3 95/2/3 96/2/3
f 98/1/3 96/1/3 91/1/3
f 99/1/3 98/1/3 91/1/3
f 100/1/3 98/1/3 99/1/3
f 103/2/3 102/2/3 101/2/3
f 104/2/3 102/2/3 103/2/3
f 107/3/3 106/3/3 105/3/3
f 108/3/3 106/3/3 107/3/3
f 111/3/3 110/3/3 109/3/3
f 112/3/3 110/3/3 111/3/3
f 113/3/4 114/3/4 115/3/4
f 115/3/4 114/3/4 116/3/4
f 117/3/4 118/3/4 119/3/4
f 119/3/4 118/3/4 120/3/4
f 121/2/4 122/2/4 123/2/4
f 123/2/4 122/2/4 124/2/4
f 125/2/4 126/2/4 127/2/4
f 127/2/4 126/2/4 128/2/4
f 129/1/4 130/1/4 131/1/4
f 129/1/4 131/1/4 133/1/4
f 131/2/4 132/2/4 133/2/4
f 133/2/4 132/2/4 134/2/4
f 129/1/4 133/1/4 135/1/4
f 129/1/4 135/1/4 137/1/4
f 135/2/4 136/2/4 137/2/4
f 137/2/4 136/2/4 138/2/4
f 129/1/4 137/1/4 139/1/4
f 139/1/4 137/1/4 140/1/4
f 141/3/4 142/3/4 143/3/4
f 143/3/4 142/3/4 144/3/4
f 145/3/4 146/3/4 147/3/4
f 147/3/4 146/3/4 148/3/4
f 153/3/5 150/3/5 149/3/5
f 154/3/5 152/3/5 151/3/5
f 155/3/5 153/3/5 149/3/5
f 155/1/5 154/1/5 153/1/5
f 156/3/5 152/3/5 154/3/5
f 156/1/5 154/1/5 155/1/5
f 157/3/5 155/3/5 149/3/5
f 158/3/5 155/3/5 157/3/5
f 159/3/5 152/3/5 156/3/5
f 160/3/5 152/3/5 159/3/5
f 165/3/5 162/3/5 161/3/5
f 166/3/5 162/3/5 165/3/5
f 167/3/5 164/3/5 163/3/5
f 168/3/5 164/3/5 167/3/5
f 173/2/5 170/2/5 169/2/5
f 174/2/5 170/2/5 173/2/5
f 175/2/5 172/2/5 171/2/5
f 176/2/5 172/2/5 175/2/5
f 177/3/6 178/3/6 181/3/6
f 181/3/6 178/3/6 182/3/6
f 179/3/6 180/3/6 183/3/6
f 183/3/6 180/3/6 184/3/6
f 185/3/6 186/3/6 189/3/6
f 187/3/6 188/3/6 192/3/6
f 189/1/6 190/1/6 195/1/6
f 185/3/6 189/3/6 195/3/6
f 195/1/6 190/1/6 196/1/6
f 193/1/6 194/1/6 197/1/6
f 197/1/6 194/1/6 198/1/6
f 191/1/6 192/1/6 199/1/6
f 192/3/6 188/3/6 200/3/6
f 199/1/6 192/1/6 200/1/6
f 185/3/6 195/3/6 201/3/6
f 201/3/6 195/3/6 202/3/6
f 200/3/6 188/3/6 203/3/6
f 203/3/6 188/3/6 204/3/6
f 205/2/6 206/2/6 209/2/6
f 207/2/6 208/2/6 210/2/6
f 209/2/6 210/2/6 211/2/6
f 211/2/6 210/2/6 212/2/6
f 209/2/6 211/2/6 213/2/6
f 212/2/6 210/2/6 214/2/6
f 205/2/6 209/2/6 215/2/6
f 213/2/6 214/2/6 215/2/6
f 209/2/6 213/2/6 215/2/6
f 214/2/6 210/2/6 216/2/6
f 215/2/6 214/2/6 216/2/6
f 210/2/6 208/2/6 216/2/6
f 205/2/6 215/2/6 217/2/6
f 217/2/6 215/2/6 218/2/6
f 216/2/6 208/2/6 219/2/6
f 219/2/6 208/2/6 220/2/6
f 221/2/6 222/2/6 223/2/6
f 223/2/6 222/2/6 224/2/6
