# MagicaVoxel @ Ephtracy

# group
o 

# material
mtllib Tile_001.mtl
usemtl palette

# normals
vn -1 0 0
vn 1 0 0
vn 0 0 1
vn 0 0 -1
vn 0 -1 0
vn 0 1 0

# texcoords
vt 0.0605469 0.5
vt 0.306641 0.5
vt 0.884766 0.5
vt 0.892578 0.5
vt 0.900391 0.5
vt 0.904297 0.5

# verts
v -0.5 0 0.5
v -0.5 0 -0.5
v -0.5 0.5 0.3
v -0.5 0.5 0.2
v -0.5 0.6 -0.1
v -0.5 0.6 -0.2
v -0.5 0.7 0.4
v -0.5 0.7 0.3
v -0.5 0.7 0
v -0.5 0.7 -0.1
v -0.5 0.7 -0.3
v -0.5 0.7 -0.4
v -0.5 0.8 0.5
v -0.5 0.8 0.4
v -0.5 0.8 0.2
v -0.5 0.8 0
v -0.5 0.8 -0.2
v -0.5 0.8 -0.3
v -0.5 0.8 -0.4
v -0.5 0.8 -0.5
v -0.5 0.9 0.2
v -0.5 0.9 0.1
v -0.5 0.9 -0.4
v -0.5 0.9 -0.5
v -0.5 1 0.5
v -0.5 1 0.2
v -0.5 1 0.1
v -0.5 1 -0.4
v -0.5 1 -0.5
v 0.5 0 0.5
v 0.5 0 -0.5
v 0.5 0.5 0.2
v 0.5 0.5 0.1
v 0.5 0.6 -0.2
v 0.5 0.6 -0.3
v 0.5 0.7 0.5
v 0.5 0.7 0.4
v 0.5 0.7 0.2
v 0.5 0.7 0.1
v 0.5 0.7 0
v 0.5 0.7 -0.3
v 0.5 0.7 -0.4
v 0.5 0.8 0.4
v 0.5 0.8 0.2
v 0.5 0.8 0.1
v 0.5 0.8 0
v 0.5 0.8 -0.2
v 0.5 0.8 -0.4
v 0.5 0.8 -0.5
v 0.5 0.9 0
v 0.5 0.9 -0.1
v 0.5 1 0.5
v 0.5 1 0
v 0.5 1 -0.1
v 0.5 1 -0.5
v -0.5 0 0.5
v -0.5 0.8 0.5
v -0.5 1 0.5
v -0.3 0.6 0.5
v -0.3 0.7 0.5
v -0.3 0.8 0.5
v -0.2 0.7 0.5
v -0.2 0.8 0.5
v -0.2 0.9 0.5
v -0.2 1 0.5
v -0.1 0.6 0.5
v -0.1 0.7 0.5
v 0 0.9 0.5
v 0 1 0.5
v 0.1 0.7 0.5
v 0.1 0.8 0.5
v 0.3 0.5 0.5
v 0.3 0.6 0.5
v 0.3 0.7 0.5
v 0.3 0.8 0.5
v 0.4 0.5 0.5
v 0.4 0.6 0.5
v 0.4 0.7 0.5
v 0.5 0 0.5
v 0.5 0.7 0.5
v 0.5 1 0.5
v -0.5 0 -0.5
v -0.5 0.8 -0.5
v -0.5 0.9 -0.5
v -0.5 1 -0.5
v -0.4 0.7 -0.5
v -0.4 0.8 -0.5
v -0.4 0.9 -0.5
v -0.4 1 -0.5
v -0.2 0.6 -0.5
v -0.2 0.7 -0.5
v -0.1 0.6 -0.5
v -0.1 0.7 -0.5
v 0 0.9 -0.5
v 0 1 -0.5
v 0.1 0.6 -0.5
v 0.1 0.7 -0.5
v 0.1 0.8 -0.5
v 0.2 0.7 -0.5
v 0.2 0.8 -0.5
v 0.2 0.9 -0.5
v 0.2 1 -0.5
v 0.3 0.6 -0.5
v 0.3 0.8 -0.5
v 0.4 0.6 -0.5
v 0.4 0.8 -0.5
v 0.5 0 -0.5
v 0.5 0.8 -0.5
v 0.5 1 -0.5
v -0.5 0 0.5
v 0.5 0 0.5
v -0.5 0 -0.5
v 0.5 0 -0.5
v -0.5 1 0.5
v -0.2 1 0.5
v 0 1 0.5
v 0.5 1 0.5
v -0.2 1 0.4
v 0 1 0.4
v 0.2 1 0.4
v 0.3 1 0.4
v -0.3 1 0.3
v 0 1 0.3
v 0.2 1 0.3
v 0.3 1 0.3
v -0.5 1 0.2
v -0.4 1 0.2
v -0.3 1 0.2
v 0 1 0.2
v -0.5 1 0.1
v -0.4 1 0.1
v -0.1 1 0.1
v 0.2 1 0.1
v 0.4 1 0
v 0.5 1 0
v -0.2 1 -0.1
v -0.1 1 -0.1
v 0 1 -0.1
v 0.2 1 -0.1
v 0.4 1 -0.1
v 0.5 1 -0.1
v -0.4 1 -0.2
v -0.2 1 -0.2
v 0 1 -0.2
v 0.3 1 -0.2
v -0.4 1 -0.3
v -0.2 1 -0.3
v 0 1 -0.3
v 0.3 1 -0.3
v -0.5 1 -0.4
v -0.4 1 -0.4
v 0 1 -0.4
v 0.2 1 -0.4
v -0.5 1 -0.5
v -0.4 1 -0.5
v 0 1 -0.5
v 0.2 1 -0.5
v 0.5 1 -0.5

# faces
f 3/1/1 2/1/1 1/1/1
f 4/1/1 2/1/1 3/1/1
f 5/1/1 2/1/1 4/1/1
f 6/1/1 2/1/1 5/1/1
f 7/1/1 3/1/1 1/1/1
f 8/4/1 4/4/1 3/4/1
f 8/1/1 3/1/1 7/1/1
f 9/1/1 5/1/1 4/1/1
f 10/4/1 6/4/1 5/4/1
f 10/1/1 5/1/1 9/1/1
f 11/1/1 2/1/1 6/1/1
f 12/1/1 2/1/1 11/1/1
f 13/1/1 7/1/1 1/1/1
f 14/4/1 8/4/1 7/4/1
f 14/1/1 7/1/1 13/1/1
f 15/4/1 4/4/1 8/4/1
f 15/4/1 8/4/1 14/4/1
f 15/1/1 9/1/1 4/1/1
f 16/4/1 10/4/1 9/4/1
f 16/1/1 9/1/1 15/1/1
f 17/4/1 6/4/1 10/4/1
f 17/4/1 10/4/1 16/4/1
f 17/1/1 11/1/1 6/1/1
f 18/4/1 12/4/1 11/4/1
f 18/1/1 11/1/1 17/1/1
f 19/1/1 2/1/1 12/1/1
f 19/4/1 12/4/1 18/4/1
f 20/1/1 2/1/1 19/1/1
f 21/4/1 16/4/1 15/4/1
f 21/4/1 18/4/1 17/4/1
f 21/4/1 20/4/1 19/4/1
f 21/4/1 19/4/1 18/4/1
f 21/4/1 15/4/1 14/4/1
f 21/4/1 14/4/1 13/4/1
f 21/4/1 17/4/1 16/4/1
f 22/4/1 20/4/1 21/4/1
f 23/4/1 20/4/1 22/4/1
f 24/4/1 20/4/1 23/4/1
f 25/4/1 21/4/1 13/4/1
f 26/6/1 22/6/1 21/6/1
f 26/4/1 21/4/1 25/4/1
f 27/4/1 23/4/1 22/4/1
f 27/6/1 22/6/1 26/6/1
f 28/3/1 24/3/1 23/3/1
f 28/4/1 23/4/1 27/4/1
f 29/3/1 24/3/1 28/3/1
f 30/1/2 31/1/2 32/1/2
f 32/1/2 31/1/2 33/1/2
f 33/1/2 31/1/2 34/1/2
f 34/1/2 31/1/2 35/1/2
f 30/1/2 32/1/2 36/1/2
f 36/1/2 32/1/2 37/1/2
f 32/4/2 33/4/2 38/4/2
f 37/1/2 32/1/2 38/1/2
f 33/1/2 34/1/2 39/1/2
f 38/4/2 33/4/2 39/4/2
f 39/1/2 34/1/2 40/1/2
f 35/1/2 31/1/2 41/1/2
f 34/4/2 35/4/2 41/4/2
f 41/1/2 31/1/2 42/1/2
f 36/4/2 37/4/2 43/4/2
f 37/1/2 38/1/2 43/1/2
f 38/3/2 39/3/2 44/3/2
f 43/1/2 38/1/2 44/1/2
f 39/4/2 40/4/2 45/4/2
f 44/3/2 39/3/2 45/3/2
f 40/1/2 34/1/2 46/1/2
f 45/4/2 40/4/2 46/4/2
f 41/4/2 42/4/2 47/4/2
f 46/1/2 34/1/2 47/1/2
f 34/4/2 41/4/2 47/4/2
f 42/1/2 31/1/2 48/1/2
f 47/4/2 42/4/2 48/4/2
f 48/1/2 31/1/2 49/1/2
f 44/4/2 45/4/2 50/4/2
f 46/4/2 47/4/2 50/4/2
f 48/4/2 49/4/2 50/4/2
f 47/4/2 48/4/2 50/4/2
f 45/4/2 46/4/2 50/4/2
f 43/4/2 44/4/2 50/4/2
f 50/4/2 49/4/2 51/4/2
f 36/4/2 43/4/2 52/4/2
f 43/4/2 50/4/2 52/4/2
f 50/6/2 51/6/2 53/6/2
f 52/4/2 50/4/2 53/4/2
f 51/4/2 49/4/2 54/4/2
f 53/6/2 51/6/2 54/6/2
f 54/4/2 49/4/2 55/4/2
f 59/1/3 57/1/3 56/1/3
f 60/1/3 57/1/3 59/1/3
f 61/4/3 58/4/3 57/4/3
f 61/1/3 57/1/3 60/1/3
f 62/4/3 60/4/3 59/4/3
f 62/3/3 61/3/3 60/3/3
f 63/4/3 58/4/3 61/4/3
f 63/3/3 61/3/3 62/3/3
f 64/4/3 58/4/3 63/4/3
f 65/4/3 58/4/3 64/4/3
f 66/4/3 62/4/3 59/4/3
f 66/1/3 59/1/3 56/1/3
f 66/4/3 63/4/3 62/4/3
f 66/4/3 64/4/3 63/4/3
f 67/4/3 64/4/3 66/4/3
f 68/6/3 65/6/3 64/6/3
f 68/4/3 64/4/3 67/4/3
f 69/6/3 65/6/3 68/6/3
f 70/1/3 67/1/3 66/1/3
f 70/4/3 68/4/3 67/4/3
f 70/4/3 69/4/3 68/4/3
f 71/4/3 69/4/3 70/4/3
f 72/1/3 66/1/3 56/1/3
f 72/1/3 70/1/3 66/1/3
f 72/1/3 71/1/3 70/1/3
f 73/1/3 71/1/3 72/1/3
f 74/1/3 71/1/3 73/1/3
f 75/4/3 69/4/3 71/4/3
f 75/1/3 71/1/3 74/1/3
f 76/1/3 72/1/3 56/1/3
f 76/4/3 73/4/3 72/4/3
f 77/3/3 74/3/3 73/3/3
f 77/4/3 73/4/3 76/4/3
f 78/4/3 75/4/3 74/4/3
f 78/3/3 74/3/3 77/3/3
f 79/1/3 76/1/3 56/1/3
f 79/1/3 77/1/3 76/1/3
f 79/1/3 78/1/3 77/1/3
f 80/4/3 75/4/3 78/4/3
f 80/1/3 78/1/3 79/1/3
f 81/4/3 69/4/3 75/4/3
f 81/4/3 75/4/3 80/4/3
f 82/1/4 83/1/4 86/1/4
f 83/4/4 84/4/4 87/4/4
f 86/1/4 83/1/4 87/1/4
f 84/3/4 85/3/4 88/3/4
f 87/4/4 84/4/4 88/4/4
f 88/3/4 85/3/4 89/3/4
f 82/1/4 86/1/4 90/1/4
f 86/4/4 87/4/4 91/4/4
f 90/1/4 86/1/4 91/1/4
f 87/4/4 88/4/4 91/4/4
f 88/4/4 89/4/4 91/4/4
f 82/1/4 90/1/4 92/1/4
f 90/3/4 91/3/4 92/3/4
f 91/4/4 89/4/4 93/4/4
f 92/3/4 91/3/4 93/3/4
f 92/4/4 93/4/4 94/4/4
f 93/4/4 89/4/4 94/4/4
f 94/4/4 89/4/4 95/4/4
f 82/1/4 92/1/4 96/1/4
f 92/4/4 94/4/4 96/4/4
f 96/4/4 94/4/4 97/4/4
f 97/4/4 94/4/4 98/4/4
f 96/1/4 97/1/4 99/1/4
f 97/3/4 98/3/4 99/3/4
f 98/4/4 94/4/4 100/4/4
f 99/3/4 98/3/4 100/3/4
f 94/6/4 95/6/4 101/6/4
f 100/4/4 94/4/4 101/4/4
f 101/6/4 95/6/4 102/6/4
f 99/1/4 100/1/4 103/1/4
f 82/1/4 96/1/4 103/1/4
f 96/1/4 99/1/4 103/1/4
f 101/4/4 102/4/4 104/4/4
f 103/1/4 100/1/4 104/1/4
f 100/4/4 101/4/4 104/4/4
f 82/1/4 103/1/4 105/1/4
f 103/4/4 104/4/4 105/4/4
f 104/4/4 102/4/4 106/4/4
f 105/4/4 104/4/4 106/4/4
f 82/1/4 105/1/4 107/1/4
f 105/1/4 106/1/4 107/1/4
f 106/4/4 102/4/4 108/4/4
f 107/1/4 106/1/4 108/1/4
f 108/4/4 102/4/4 109/4/4
f 112/1/5 111/1/5 110/1/5
f 113/1/5 111/1/5 112/1/5
f 114/4/6 115/4/6 118/4/6
f 115/6/6 116/6/6 118/6/6
f 116/4/6 117/4/6 119/4/6
f 118/6/6 116/6/6 119/6/6
f 119/4/6 117/4/6 120/4/6
f 120/4/6 117/4/6 121/4/6
f 114/4/6 118/4/6 122/4/6
f 118/4/6 119/4/6 122/4/6
f 119/4/6 120/4/6 122/4/6
f 122/4/6 120/4/6 123/4/6
f 120/5/6 121/5/6 124/5/6
f 123/4/6 120/4/6 124/4/6
f 121/4/6 117/4/6 125/4/6
f 124/5/6 121/5/6 125/5/6
f 114/4/6 122/4/6 126/4/6
f 126/4/6 122/4/6 127/4/6
f 122/5/6 123/5/6 128/5/6
f 127/4/6 122/4/6 128/4/6
f 123/4/6 124/4/6 129/4/6
f 128/5/6 123/5/6 129/5/6
f 124/4/6 125/4/6 129/4/6
f 126/6/6 127/6/6 130/6/6
f 127/4/6 128/4/6 131/4/6
f 130/6/6 127/6/6 131/6/6
f 128/4/6 129/4/6 131/4/6
f 131/4/6 129/4/6 132/4/6
f 129/4/6 125/4/6 133/4/6
f 132/4/6 129/4/6 133/4/6
f 125/4/6 117/4/6 134/4/6
f 133/4/6 125/4/6 134/4/6
f 134/4/6 117/4/6 135/4/6
f 131/4/6 132/4/6 136/4/6
f 130/4/6 131/4/6 136/4/6
f 132/5/6 133/5/6 137/5/6
f 136/4/6 132/4/6 137/4/6
f 137/5/6 133/5/6 138/5/6
f 133/4/6 134/4/6 139/4/6
f 138/5/6 133/5/6 139/5/6
f 134/6/6 135/6/6 140/6/6
f 139/4/6 134/4/6 140/4/6
f 140/6/6 135/6/6 141/6/6
f 130/4/6 136/4/6 142/4/6
f 137/3/6 138/3/6 143/3/6
f 142/4/6 136/4/6 143/4/6
f 136/3/6 137/3/6 143/3/6
f 138/4/6 139/4/6 144/4/6
f 143/3/6 138/3/6 144/3/6
f 140/4/6 141/4/6 144/4/6
f 139/4/6 140/4/6 144/4/6
f 144/4/6 141/4/6 145/4/6
f 142/5/6 143/5/6 146/5/6
f 130/4/6 142/4/6 146/4/6
f 143/3/6 144/3/6 147/3/6
f 146/5/6 143/5/6 147/5/6
f 144/5/6 145/5/6 148/5/6
f 147/3/6 144/3/6 148/3/6
f 145/4/6 141/4/6 149/4/6
f 148/5/6 145/5/6 149/5/6
f 147/4/6 148/4/6 150/4/6
f 146/4/6 147/4/6 150/4/6
f 148/4/6 149/4/6 150/4/6
f 130/4/6 146/4/6 150/4/6
f 150/4/6 149/4/6 151/4/6
f 151/4/6 149/4/6 152/4/6
f 152/4/6 149/4/6 153/4/6
f 150/3/6 151/3/6 154/3/6
f 151/4/6 152/4/6 155/4/6
f 154/3/6 151/3/6 155/3/6
f 152/6/6 153/6/6 156/6/6
f 155/4/6 152/4/6 156/4/6
f 153/4/6 149/4/6 157/4/6
f 156/6/6 153/6/6 157/6/6
f 149/4/6 141/4/6 158/4/6
f 157/4/6 149/4/6 158/4/6
